<svg width="151" height="153" viewBox="0 0 151 153" fill="none" xmlns="http://www.w3.org/2000/svg">
<path d="M0.921341 102.282V133.75C0.921341 142.004 6.05756 149.478 13.7776 151.959C26.8963 156.161 38.9436 146.302 38.9436 133.578V121.731L0.921341 102.282Z" fill="#007299"/>
<path d="M131.888 95.7704C129.031 95.7704 126.132 95.1181 123.402 93.7281L11.8239 36.9625C2.58091 32.2579 -1.71496 20.9347 2.59143 11.3757C7.08689 1.36768 18.7877 -2.78095 28.3773 2.09476L139.934 58.8497C149.292 63.6078 153.578 75.5298 148.893 85.0566C145.564 91.8463 138.852 95.7704 131.867 95.7704H131.888Z" fill="#00BEFF"/>
<path d="M75.8841 124.447C73.0272 124.447 70.1283 123.795 67.3974 122.405L11.8239 94.1344C2.58091 89.4298 -1.71496 78.1066 2.59143 68.5477C7.08689 58.5396 18.7877 54.391 28.3878 59.2667L83.9403 87.5266C93.2988 92.2847 97.5841 104.207 92.8996 113.733C89.57 120.523 82.8584 124.447 75.8736 124.447H75.8841Z" fill="#00BEFF"/>
</svg>
